<svg width="40" height="40" viewBox="0 0 40 40" fill="none" xmlns="http://www.w3.org/2000/svg">
<rect width="40" height="40" rx="20" fill="#FFD5D3"/>
<path d="M30.0674 13.7133C30.0107 13.5762 29.9146 13.4591 29.7913 13.3766C29.6679 13.2942 29.5229 13.2502 29.3746 13.2501H26.5218C26.1229 12.5716 25.5553 12.0077 24.874 11.6135C24.1927 11.2192 23.4211 11.0079 22.634 11.0001C22.0476 10.9924 21.4656 11.1021 20.9222 11.3227C20.3788 11.5433 19.885 11.8703 19.4699 12.2845C19.0427 12.7038 18.7036 13.2042 18.4725 13.7565C18.2415 14.3087 18.1232 14.9015 18.1246 15.5001V16.0711C14.3502 15.0754 11.263 12.0051 11.2302 11.9723C11.1296 11.8708 11.0021 11.8002 10.8627 11.7687C10.7232 11.7372 10.5777 11.7463 10.4433 11.7947C10.3088 11.8432 10.191 11.9291 10.1037 12.0423C10.0164 12.1554 9.96326 12.2912 9.95054 12.4336C9.54648 16.9139 10.8477 19.912 12.013 21.6379C12.5812 22.4912 13.2725 23.2557 14.0643 23.9067C12.6365 25.5501 10.3884 26.4136 10.364 26.4229C10.2581 26.4626 10.1626 26.5256 10.0846 26.6074C10.0066 26.6891 9.94799 26.7874 9.91328 26.895C9.87858 27.0025 9.86862 27.1165 9.88416 27.2284C9.89971 27.3404 9.94034 27.4474 10.003 27.5414C10.0734 27.6464 10.3546 28.0148 11.0418 28.3589C11.8912 28.7845 13.0134 29.0001 14.3746 29.0001C20.9999 29.0001 26.5359 23.8983 27.1012 17.3339L29.9052 14.5308C30.0101 14.4258 30.0815 14.2921 30.1103 14.1466C30.1392 14.0011 30.1243 13.8503 30.0674 13.7133ZM25.8487 16.4704C25.7201 16.5993 25.6428 16.7706 25.6312 16.9523C25.2496 22.867 20.3071 27.5001 14.3746 27.5001C13.3846 27.5001 12.6871 27.3689 12.1977 27.2114C13.2768 26.6254 14.7815 25.6176 15.749 24.1664C15.8058 24.081 15.8445 23.985 15.8627 23.8841C15.8809 23.7832 15.8782 23.6797 15.8548 23.5799C15.8315 23.4801 15.7879 23.3861 15.7268 23.3038C15.6657 23.2215 15.5884 23.1526 15.4996 23.1014C15.4555 23.0761 11.383 20.632 11.3746 14.1014C12.8746 15.3201 15.6168 17.2111 18.7499 17.7379C18.8573 17.7561 18.9673 17.7506 19.0724 17.7218C19.1774 17.6931 19.2749 17.6419 19.3582 17.5717C19.4414 17.5015 19.5084 17.414 19.5544 17.3153C19.6004 17.2166 19.6243 17.109 19.6246 17.0001V15.5001C19.6238 15.1001 19.703 14.7038 19.8575 14.3348C20.0121 13.9658 20.2389 13.6314 20.5246 13.3514C20.7985 13.077 21.1246 12.8603 21.4837 12.7141C21.8428 12.5678 22.2275 12.4951 22.6152 12.5001C23.8021 12.5151 24.9112 13.2389 25.3752 14.3011C25.4337 14.4346 25.5299 14.5482 25.6519 14.628C25.774 14.7077 25.9166 14.7502 26.0624 14.7501H27.5624L25.8487 16.4704Z" fill="#CD3C32"/>
</svg>
