<svg width="478" height="307" viewBox="0 0 478 307" fill="none" xmlns="http://www.w3.org/2000/svg">
<rect x="168.585" y="73.647" width="104.052" height="146.4" fill="#F9E3C5"/>
<path d="M180.767 73.6885V219.531" stroke="#161616" stroke-width="5"/>
<path d="M200.766 73.6885V219.531" stroke="#161616" stroke-width="5"/>
<path d="M220.592 73.5166V219.359" stroke="#161616" stroke-width="5"/>
<path d="M240.591 73.5166V219.359" stroke="#161616" stroke-width="5"/>
<path d="M260.59 73.5166V219.359" stroke="#161616" stroke-width="5"/>
<rect x="80.2018" y="196.287" width="149.851" height="92.5808" fill="#F9E3C5"/>
<rect x="166.255" y="196.29" width="63.7949" height="92.5757" fill="#C4A16A"/>
<path d="M90.4658 196.287L80.2018 211.145V196.287H90.4658Z" fill="#7FAD9C"/>
<path d="M119.119 196.287L80.2018 252.62V236.032L107.653 196.287H119.119Z" fill="#7FAD9C"/>
<path d="M147.772 196.287L83.8236 288.868H80.2018V277.507L136.306 196.287H147.772Z" fill="#7FAD9C"/>
<path d="M166.254 196.29V211.028L112.48 288.865H101.009L164.975 196.29H166.254Z" fill="#7FAD9C"/>
<path d="M166.255 235.907V252.492L141.127 288.865H129.679L166.255 235.907Z" fill="#7FAD9C"/>
<path d="M166.256 277.389V288.865H158.326L166.256 277.389Z" fill="#7FAD9C"/>
<path d="M230.053 226.52V243.119L198.45 288.868H186.984L230.053 226.52Z" fill="#161616"/>
<path d="M230.053 268.007V284.594L227.092 288.868H215.638L230.053 268.007Z" fill="#161616"/>
<path d="M176.436 196.29L166.255 211.028V196.29H176.436Z" fill="#2B5E57"/>
<path d="M205.081 196.29L166.255 252.492V235.907L193.622 196.29H205.081Z" fill="#2B5E57"/>
<path d="M230.049 196.29V201.618L169.794 288.865H166.255V277.389L222.281 196.29H230.049Z" fill="#2B5E57"/>
<path d="M230.053 226.52V243.119L198.45 288.868H186.984L230.053 226.52Z" fill="#2B5E57"/>
<path d="M230.053 268.007V284.594L227.092 288.868H215.638L230.053 268.007Z" fill="#2B5E57"/>
<rect x="235.778" y="143.642" width="96.8461" height="76.2273" fill="#C4A16A"/>
<ellipse cx="297.676" cy="153.697" rx="2.70538" ry="2.69972" fill="#161616"/>
<ellipse cx="248.334" cy="159.744" rx="2.70538" ry="2.69972" fill="#161616"/>
<ellipse cx="319.967" cy="192.141" rx="2.70538" ry="2.69972" fill="#161616"/>
<ellipse cx="290.825" cy="176.457" rx="2.70538" ry="2.69972" fill="#161616"/>
<ellipse cx="262.375" cy="178.616" rx="2.70538" ry="2.69972" fill="#161616"/>
<ellipse cx="272.247" cy="157.152" rx="2.70538" ry="2.69972" fill="#161616"/>
<ellipse cx="299.516" cy="208.987" rx="2.70538" ry="2.69972" fill="#161616"/>
<ellipse cx="326.195" cy="213.429" rx="2.70538" ry="2.69972" fill="#161616"/>
<ellipse cx="245.195" cy="193.221" rx="2.70538" ry="2.69972" fill="#161616"/>
<ellipse cx="259.263" cy="208.987" rx="2.70538" ry="2.69972" fill="#161616"/>
<ellipse cx="277.55" cy="199.808" rx="2.70538" ry="2.69972" fill="#161616"/>
<ellipse cx="319.533" cy="167.411" rx="2.70538" ry="2.69972" fill="#161616"/>
<rect x="112.682" y="122.705" width="94.8093" height="73.5479" fill="#C64D3B"/>
<path d="M159.86 196.217L159.708 122.661" stroke="#C4A16A" stroke-width="7"/>
<path d="M112.707 159.288L207.477 159.292" stroke="#C4A16A" stroke-width="7"/>
<rect x="199.258" y="219.8" width="144.674" height="69.0976" fill="#C64D3B"/>
<path d="M292.795 219.902V288.283" stroke="white"/>
<ellipse cx="203.386" cy="227.799" rx="1.5293" ry="1.5261" fill="white"/>
<ellipse cx="218.207" cy="239.958" rx="1.5293" ry="1.5261" fill="white"/>
<ellipse cx="236.245" cy="229.273" rx="1.5293" ry="1.5261" fill="white"/>
<ellipse cx="213.355" cy="260.643" rx="1.5293" ry="1.5261" fill="white"/>
<ellipse cx="261.718" cy="260.591" rx="1.5293" ry="1.5261" fill="white"/>
<ellipse cx="261.033" cy="279.75" rx="1.5293" ry="1.5261" fill="white"/>
<ellipse cx="283.501" cy="270.223" rx="1.5293" ry="1.5261" fill="white"/>
<ellipse cx="317.466" cy="281.224" rx="1.5293" ry="1.5261" fill="white"/>
<ellipse cx="333.763" cy="270.171" rx="1.5293" ry="1.5261" fill="white"/>
<ellipse cx="305.652" cy="266.117" rx="1.5293" ry="1.5261" fill="white"/>
<ellipse cx="207.5" cy="279.013" rx="1.5293" ry="1.5261" fill="white"/>
<ellipse cx="235.876" cy="272.381" rx="1.5293" ry="1.5261" fill="white"/>
<ellipse cx="243.628" cy="249.116" rx="1.5293" ry="1.5261" fill="white"/>
<ellipse cx="279.071" cy="246.274" rx="1.5293" ry="1.5261" fill="white"/>
<ellipse cx="333.712" cy="235.168" rx="1.5293" ry="1.5261" fill="white"/>
<ellipse cx="303.438" cy="245.485" rx="1.5293" ry="1.5261" fill="white"/>
<ellipse cx="259.873" cy="234.431" rx="1.5293" ry="1.5261" fill="white"/>
<ellipse cx="282.393" cy="226.694" rx="1.5293" ry="1.5261" fill="white"/>
<ellipse cx="322.266" cy="256.17" rx="1.5293" ry="1.5261" fill="white"/>
<ellipse cx="314.513" cy="230.378" rx="1.5293" ry="1.5261" fill="white"/>
<path d="M199.331 253.585L343.804 253.582" stroke="white"/>
<path d="M285.981 143.44V219.464" stroke="#161616"/>
<path d="M235.877 181.768H332.648" stroke="#161616"/>
<rect x="163.238" y="72.9854" width="114.747" height="16.4025" fill="#161616"/>
<rect x="233.117" y="138.856" width="101.141" height="13.3073" fill="#161616"/>
<path d="M334.202 133.129L375.894 139.311L452.038 279.195L426.408 294.573L426.318 294.589L380.036 294.914L379.943 294.737L302.46 149.619L333.987 133.237L334.202 133.129Z" fill="#7FAD9C"/>
<path d="M452.035 279.2L426.407 294.578L426.317 294.588L380.041 294.917L379.941 294.738L302.457 149.622L333.984 133.237L334.144 133.157L411.138 277.224L451.925 279.001L452.035 279.2Z" fill="#2B5E57"/>
<path d="M340.532 222.22L372.865 205.43L413.507 206.547" stroke="#161616"/>
<path d="M403.082 295.201L433.007 278.223L356.923 135.97" stroke="#161616"/>
<path d="M452.035 279.2L426.407 294.578L426.317 294.588L403.869 294.747L380.181 294.917L411.128 277.204L372.791 205.475L341.074 221.94L302.457 149.622L333.984 133.236L334.144 133.156L334.204 133.126L357.232 136.539L375.891 139.313L412.468 206.512L451.925 279L452.035 279.2Z" fill="#7FAD9C"/>
<path d="M334.144 133.156L372.791 205.475L341.074 221.94L302.457 149.622L333.984 133.236L334.144 133.156Z" fill="#2B5E57"/>
<path d="M452.036 279.2L426.408 294.578L426.318 294.588L403.869 294.747L380.181 294.917L411.129 277.204L411.139 277.224L432.987 278.172L451.926 279L452.036 279.2Z" fill="#161616"/>
<path d="M414.581 207.065L372.861 205.435L372.791 205.474L341.074 221.94L340.534 222.219" stroke="#161616"/>
<path d="M403.082 295.201L433.007 278.223L356.923 135.97" stroke="#161616"/>
<path d="M267.634 96.9497C264.17 97.5942 260.888 98.9857 258.019 101.027C255.762 102.459 254.051 104.606 253.161 107.123C252.432 109.668 253.286 112.792 255.624 114.042C257.712 114.891 260.103 114.457 261.758 112.93L267.634 96.9497Z" fill="#C4A16A"/>
<path d="M306.411 95.2607C308.628 96.7327 311.612 98.386 313.813 99.8806C322.495 105.774 322.104 109.089 321.884 110.285C321.366 113.096 318.356 115.349 314.096 114.271L306.411 95.2607Z" fill="#C4A16A"/>
<path d="M314.135 113.693C315.465 129.358 303.326 138.604 287.918 138.604C272.51 138.604 261.193 129.976 261.193 114.224C261.193 98.4721 272.403 87.6512 286.467 86.6115C300.833 85.5495 312.76 97.5009 314.135 113.693Z" fill="#C4A16A"/>
<path d="M306.95 95.6104C311.147 100.759 313.656 107.072 314.135 113.693" stroke="#161616" stroke-linecap="round"/>
<path d="M261.193 114.224C261.076 107.71 263.25 101.36 267.338 96.2793" stroke="#161616" stroke-linecap="round"/>
<ellipse cx="270.315" cy="61.6002" rx="5.86881" ry="5.85652" fill="#C4A16A"/>
<ellipse cx="303.373" cy="60.4288" rx="5.86881" ry="5.85652" fill="#C4A16A"/>
<ellipse cx="287.253" cy="75.4414" rx="21.2103" ry="18.7133" fill="#C4A16A"/>
<ellipse cx="274.887" cy="71.1672" rx="1.21616" ry="1.21361" fill="#161616"/>
<ellipse cx="298.097" cy="71.1672" rx="1.21616" ry="1.21361" fill="#161616"/>
<path d="M279.681 74.5852C281.408 72.9666 283.72 72.1173 286.087 72.2319C288.137 72.1629 290.153 72.7694 291.824 73.9577C294.908 76.3127 296.142 80.3692 294.89 84.0375C294.261 85.8025 293.107 87.5972 289.859 88.7049C286.755 89.7638 281.254 89.7109 278.619 85.9594C277.75 84.7213 275.606 78.7918 279.681 74.5852Z" fill="#F9E3C5"/>
<path d="M286.667 75.2213C285.58 75.0233 284.457 75.2086 283.492 75.7454C282.917 76.0662 282.622 76.726 282.767 77.3672C283.04 78.1114 284.018 78.2472 284.812 78.2601L286.316 78.2846C286.827 78.3391 287.343 78.2518 287.808 78.0323C288.314 77.7187 288.57 77.1231 288.449 76.5409C288.162 75.2949 286.667 75.2213 286.667 75.2213Z" fill="#161616"/>
<path d="M285.532 78.4844C285.599 79.9193 285.58 81.3569 285.475 82.7896C285.452 83.0891 285.378 83.3825 285.258 83.6579C284.615 84.5288 283.595 85.0426 282.511 85.0419" stroke="#161616" stroke-linecap="round"/>
<path d="M285.516 82.1108C285.517 82.8534 285.832 83.5611 286.384 84.0597C286.935 84.5583 287.672 84.8015 288.412 84.7295" stroke="#161616" stroke-linecap="round"/>
<ellipse cx="288.425" cy="116.23" rx="14.6322" ry="14.3373" fill="#F9E3C5"/>
<ellipse cx="269.668" cy="128.177" rx="10.2323" ry="10.552" fill="#C4A16A"/>
<ellipse cx="307.706" cy="128.177" rx="10.2323" ry="10.552" fill="#C4A16A"/>
<path d="M262.282 120.874C264.181 118.808 266.859 117.63 269.667 117.625C275.412 117.72 279.992 122.444 279.9 128.177C279.914 131.247 278.602 134.175 276.3 136.212" stroke="#161616" stroke-linecap="round"/>
<path d="M300.704 135.871C298.627 133.849 297.462 131.073 297.474 128.177C297.381 122.444 301.961 117.72 307.706 117.625C309.753 117.624 311.751 118.254 313.427 119.427" stroke="#161616" stroke-linecap="round"/>
<path fill-rule="evenodd" clip-rule="evenodd" d="M24.2724 293.632C24.2708 293.62 24.2684 293.609 24.2653 293.597L28.8201 210.097C28.8213 210.059 28.8261 210.021 28.8343 209.984C28.8462 209.927 28.8706 209.873 28.9056 209.827C28.9288 209.778 28.9628 209.734 29.0051 209.699C29.084 209.62 29.1863 209.568 29.297 209.55C29.3359 209.536 29.3768 209.529 29.418 209.529H29.4608L46.684 208.549L46.1574 206.652C46.1518 206.629 46.1494 206.605 46.1503 206.581C46.1484 206.569 46.1509 206.556 46.1574 206.546C46.151 206.517 46.1561 206.486 46.1716 206.461C46.1826 206.427 46.1994 206.396 46.2213 206.368C46.2337 206.352 46.2481 206.338 46.2641 206.326C46.2806 206.312 46.3001 206.302 46.3211 206.297L46.3851 206.276C46.4107 206.27 46.4371 206.267 46.4634 206.269C46.4705 206.262 46.4777 206.262 46.4919 206.262L118.766 215.311H118.801C118.957 215.309 119.108 215.367 119.221 215.474C119.331 215.584 119.394 215.731 119.399 215.886L123.008 295.813C123.011 295.941 122.976 296.067 122.908 296.175C122.874 296.221 122.836 296.264 122.794 296.303C122.747 296.339 122.697 296.37 122.645 296.395L97.9199 306.95H97.8985C97.8679 306.967 97.8338 306.977 97.7989 306.979C97.7577 306.993 97.7143 307 97.6707 307C97.6561 307 97.6415 306.998 97.6279 306.993C97.6144 306.993 97.6009 306.993 97.5876 306.99C97.5821 306.989 97.5765 306.987 97.5711 306.986L24.7706 294.222L24.6853 294.194C24.6667 294.185 24.6477 294.178 24.6283 294.172C24.6203 294.172 24.6123 294.168 24.603 294.163C24.5958 294.159 24.5878 294.154 24.5784 294.151C24.558 294.145 24.5419 294.129 24.5357 294.108C24.5159 294.106 24.4978 294.096 24.486 294.08L24.4575 294.052L24.4005 294.002V293.995C24.3962 293.988 24.3921 293.981 24.3883 293.975C24.3731 293.95 24.3606 293.929 24.3437 293.895C24.3309 293.882 24.3233 293.864 24.3221 293.846C24.3179 293.841 24.3162 293.837 24.314 293.831C24.3125 293.827 24.3108 293.823 24.3081 293.817C24.303 293.817 24.3016 293.814 24.2986 293.807C24.2974 293.804 24.2959 293.8 24.2938 293.796V293.753C24.2897 293.75 24.2872 293.744 24.2867 293.739C24.2878 293.717 24.2854 293.696 24.2796 293.675C24.2796 293.672 24.2783 293.667 24.2769 293.66C24.2749 293.652 24.2724 293.641 24.2724 293.632ZM48.8337 231.292C48.7853 231.666 48.7615 232.043 48.7624 232.421C48.7654 236.853 52.0655 240.593 56.4702 241.157L70.7828 242.99C74.3454 243.446 77.8295 241.702 79.5936 238.579C80.1565 237.589 80.5192 236.498 80.6612 235.369C80.7095 234.989 80.7333 234.607 80.7324 234.225C80.7289 229.796 77.4273 226.06 73.0246 225.503L60.2921 223.869L58.7192 223.67C53.881 223.052 49.4562 226.464 48.8337 231.292Z" fill="#C4A16A"/>
<path d="M29.157 209.82C29.1494 209.979 29.2651 210.117 29.423 210.137L30.0324 210.215L69.8479 215.437L101.812 219.623L102.259 219.681H102.298C102.338 219.682 102.377 219.675 102.415 219.662L103.037 219.39H103.05L107.874 217.307L118.189 215.993L118.792 215.916C118.946 215.897 119.061 215.766 119.058 215.612C119.059 215.47 118.962 215.347 118.825 215.314C118.818 215.314 118.812 215.307 118.805 215.307H118.766L46.4877 206.268C46.4531 206.264 46.4179 206.266 46.384 206.275L46.3256 206.294C46.3049 206.302 46.2854 206.313 46.2674 206.326C46.2507 206.34 46.2354 206.355 46.222 206.372C46.2009 206.4 46.1834 206.43 46.17 206.462C46.1559 206.488 46.1514 206.518 46.1572 206.546C46.1512 206.556 46.1488 206.567 46.1506 206.579C46.1512 206.603 46.1556 206.627 46.1636 206.65L46.6823 208.546L29.4621 209.529H29.4296V209.536C29.4231 209.529 29.4231 209.529 29.4166 209.536C29.271 209.553 29.1603 209.674 29.157 209.82Z" fill="#161616"/>
<path d="M48.7615 232.422C48.7662 236.853 52.0662 240.592 56.4704 241.157L70.7797 242.988C74.3418 243.447 77.8268 241.704 79.5907 238.582L66.8571 236.951C62.4539 236.385 59.1549 232.646 59.148 228.216C59.1461 227.837 59.17 227.459 59.2194 227.083C59.3645 225.953 59.7277 224.86 60.2891 223.868L58.7202 223.667C53.882 223.052 49.4581 226.462 48.8327 231.289C48.7836 231.665 48.7598 232.043 48.7615 232.422Z" fill="#161616"/>
<path d="M102.36 222.648L97.6472 304.223" stroke="#161616" stroke-linecap="round"/>
<path d="M107.802 227.029L107.801 290.343L100.901 300.71" stroke="#161616" stroke-linecap="round"/>
<path d="M118.146 293.451L107.799 290.343" stroke="#161616" stroke-linecap="round"/>
<path d="M376.723 23.2925C376.937 25.0937 375.81 26.784 374.524 28.0662C373.239 29.3484 371.72 30.4454 370.784 32.0006C369.418 34.192 369.713 37.0286 371.5 38.894C373.349 40.583 376.809 40.2211 377.927 37.9821C378.31 37.3901 378.239 36.6136 377.754 36.1015C377.525 35.9501 377.258 35.8641 376.984 35.8528C374.839 35.7685 372.963 37.2833 372.599 39.3944C372.346 41.5021 373.423 43.5467 375.306 44.5338C377.2 45.4587 379.427 45.3988 381.268 44.3734C381.768 44.1032 382.296 43.6419 382.197 43.0834C382.02 42.5702 381.52 42.2394 380.977 42.2768C379.082 42.2176 377.752 44.2222 377.452 46.0909C377.19 47.1436 377.431 48.258 378.105 49.1093C378.702 49.6084 379.412 49.9563 380.173 50.1236C383.059 51.0603 385.86 52.7679 387.255 55.4574" stroke="#C4A16A"/>
<path d="M452.481 134.173C455.146 140.332 455.281 147.868 450.301 152.374C449.419 153.216 448.301 153.771 447.096 153.964C443.747 154.328 443.136 149.803 445.87 148.029C447.596 146.879 449.801 146.717 451.677 147.601C453.554 148.486 454.829 150.287 455.037 152.348C455.536 157.408 450.241 161.015 448.37 165.744" stroke="#C64D3B"/>
<path d="M127.672 23.3491C127.798 27.9818 126.864 32.5821 124.942 36.8007C124.36 38.0914 123.442 39.2029 122.284 40.0194C121.198 40.6879 119.776 40.3685 119.081 39.3002C118.825 38.6527 118.851 37.9276 119.154 37.3005C120.545 33.9705 126.006 34.0012 127.999 37.0115C129.991 40.0218 128.707 44.3916 125.877 46.6371C123.048 48.8826 119.147 49.3362 115.563 48.8659" stroke="#C64D3B"/>
<path d="M39.7103 102.141C37.515 103.307 36.2314 105.67 36.4507 108.142C36.6699 110.614 38.3495 112.716 40.7158 113.479C43.0822 114.242 45.6765 113.519 47.3039 111.642C47.7325 111.238 47.9486 110.658 47.8887 110.073C47.606 108.827 45.5368 108.675 44.0103 109.714C41.4424 111.462 40.5862 115.202 41.7069 118.095C43.119 121.209 46.3256 123.116 49.7423 122.873C50.7131 122.868 51.6378 122.46 52.2944 121.746C52.5974 121.376 52.7329 120.897 52.6685 120.424C52.6041 119.95 52.3456 119.525 51.9547 119.249C51.4829 119.047 50.9546 119.018 50.4636 119.168C46.0263 120.181 44.451 126.646 47.3923 130.113C50.3336 133.58 56.1077 133.659 59.7609 130.949" stroke="#C4A16A"/>
<ellipse cx="382.206" cy="98.0129" rx="2.96296" ry="2.95676" fill="#7FAD9C"/>
<ellipse cx="90.722" cy="90.8776" rx="2.58465" ry="2.57924" fill="#2B5E57"/>
<ellipse cx="59.7084" cy="164.386" rx="2.58465" ry="2.57924" fill="#F9E3C5"/>
<ellipse cx="453.19" cy="108.287" rx="2.58465" ry="2.57924" fill="#F9E3C5"/>
<ellipse cx="216.267" cy="2.57924" rx="2.58465" ry="2.57924" fill="#C4A16A"/>
<ellipse cx="475.415" cy="205.436" rx="2.58465" ry="2.57924" fill="#C64D3B"/>
<ellipse cx="278.413" cy="17.0507" rx="1.61165" ry="1.60828" stroke="#161616"/>
<ellipse cx="78.6563" cy="36.1454" rx="1.61165" ry="1.60828" fill="#C64D3B"/>
<ellipse cx="1.61134" cy="139.494" rx="1.61165" ry="1.60828" fill="#C64D3B"/>
<ellipse cx="420.654" cy="153.873" rx="1.61165" ry="1.60828" fill="#2B5E57"/>
<ellipse cx="155.979" cy="47.0304" rx="2.58465" ry="2.57924" fill="#7FAD9C"/>
</svg>
